<?xml version="1.0" standalone="no"?>
<!DOCTYPE svg PUBLIC "-//W3C//DTD SVG 20010904//EN"
 "http://www.w3.org/TR/2001/REC-SVG-20010904/DTD/svg10.dtd">
<svg version="1.0" xmlns="http://www.w3.org/2000/svg"
 width="512.000000pt" height="512.000000pt" viewBox="0 0 512.000000 512.000000"
 preserveAspectRatio="xMidYMid meet">
<metadata>
Created by potrace 1.14, written by Peter Selinger 2001-2017
</metadata>
<g transform="translate(0.000000,512.000000) scale(0.100000,-0.100000)"
fill="#000000" stroke="none">
<path d="M525 5010 c-179 -28 -330 -154 -396 -331 l-24 -64 -3 -2010 c-2
-1395 1 -2031 8 -2080 33 -210 202 -382 410 -415 90 -14 3990 -14 4080 0 206
33 376 203 409 410 14 83 15 3990 2 4070 -31 187 -153 334 -332 401 l-64 24
-2020 1 c-1111 1 -2042 -2 -2070 -6z m3622 -864 c167 -44 280 -163 341 -356
37 -116 46 -182 46 -352 1 -93 3 -168 6 -168 3 0 43 23 90 50 98 58 154 66
191 29 19 -19 21 -30 16 -86 -10 -133 -112 -267 -253 -335 -38 -18 -71 -34
-73 -35 -2 -1 -14 -80 -27 -175 -42 -309 -91 -522 -170 -737 -47 -127 -161
-362 -220 -453 -231 -358 -548 -547 -959 -573 -124 -8 -219 10 -324 61 -127
63 -269 215 -362 389 -23 44 -44 82 -46 85 -2 2 -23 -18 -46 -45 -126 -150
-278 -280 -420 -359 -189 -106 -422 -151 -648 -127 -203 22 -357 85 -475 195
-113 105 -172 225 -199 405 -29 193 -25 218 159 951 140 559 166 692 166 854
0 173 -30 267 -100 313 -67 46 -122 29 -274 -82 -115 -83 -158 -105 -210 -105
-60 0 -85 66 -67 178 20 127 96 237 224 324 143 97 281 139 467 141 191 1 295
-37 395 -145 113 -122 160 -285 152 -528 -4 -137 -9 -165 -90 -530 -134 -599
-187 -912 -190 -1125 -2 -125 14 -174 74 -234 131 -132 420 -97 651 78 80 61
184 164 238 235 l40 52 -20 70 c-24 84 -73 330 -94 474 -34 231 -48 430 -50
685 -1 244 0 265 22 340 81 279 238 398 527 399 87 1 135 -4 176 -16 160 -50
271 -194 288 -373 30 -328 -127 -963 -362 -1465 l-35 -74 19 -48 c77 -195 197
-351 314 -408 67 -33 191 -39 282 -15 260 71 499 408 659 933 38 126 106 403
100 410 -2 2 -33 9 -68 17 -34 7 -88 23 -119 34 -208 79 -395 288 -455 512
-24 89 -24 264 0 344 60 199 200 337 396 389 71 19 249 20 317 2z"/>
<path d="M3986 3767 c-30 -30 -39 -94 -26 -186 16 -115 59 -193 142 -259 36
-28 43 -31 51 -17 5 9 9 82 10 163 2 121 -1 157 -17 205 -35 107 -105 148
-160 94z"/>
<path d="M2573 3535 c-69 -48 -86 -273 -52 -685 10 -117 36 -311 43 -318 2 -2
22 52 44 120 94 288 138 655 96 797 -26 88 -79 123 -131 86z"/>
</g>
</svg>
